# AST/ASF file generated using VICON BodyLanguage
# -----------------------------------------------
:version 1.10
:name VICON
:units
  mass 1.0
  length 0.45
  angle deg
:documentation
   .ast/.asf automatically generated from VICON data using
   VICON BodyBuilder and BodyLanguage model FoxedUp or BRILLIANT.MOD
:root
   order TX TY TZ RX RY RZ
   axis XYZ
   position 0 0 0  
   orientation 0 0 0 
:bonedata
  begin
     id 1 
     name lhipjoint
     direction 0.692814 -0.645514 0.321437 
     length 2.38754 
     axis 0 0 0  XYZ
  end
  begin
     id 2 
     name lfemur
     direction 0.34202 -0.939693 0  
     length 6.41921  
     axis 0 0 20  XYZ
    dof rx ry rz
    limits (-160.0 20.0)
           (-70.0 70.0)
           (-60.0 70.0)
  end
  begin
     id 3 
     name ltibia
     direction 0.34202 -0.939693 0   
     length 6.98247   
     axis 0 0 20   XYZ
    dof rx
    limits (-10.0 170.0)
  end
  begin
     id 4 
     name lfoot
     direction 0.0947186 -0.260237 0.960888   
     length 1.83034   
     axis -90 7.62852e-016 20   XYZ
    dof rx rz
    limits (-45.0 90.0)
           (-70.0 20.0)
  end
  begin
     id 5 
     name ltoes
     direction 1.53538e-011 -4.21952e-011 1   
     length 0.920499   
     axis -90 7.62852e-016 20   XYZ
    dof rx
    limits (-90.0 20.0)
  end
  begin
     id 6 
     name rhipjoint
     direction -0.631686 -0.693949 0.345555   
     length 2.2209  
     axis 0 0 0  XYZ 
  end
  begin
     id 7 
     name rfemur
     direction -0.34202 -0.939693 0   
     length 6.49542   
     axis 0 0 -20   XYZ
    dof rx ry rz
    limits (-160.0 20.0)
           (-70.0 70.0)
           (-70.0 60.0)
  end
  begin
     id 8 
     name rtibia
     direction -0.34202 -0.939693 0   
     length 7.21712   
     axis 0 0 -20   XYZ
    dof rx
    limits (-10.0 170.0)
 end
 begin
     id 9 
     name rfoot
     direction -0.0825378 -0.226771 0.970444   
     length 1.89724  
     axis -90 -7.62852e-016 -20   XYZ
    dof rx rz
    limits (-45.0 90.0)
           (-20.0 70.0)
  end
  begin
     id 10 
     name rtoes
     direction -1.53515e-011 -4.22016e-011 1   
     length 0.955868   
     axis -90 -7.62852e-016 -20   XYZ
    dof rx
    limits (-90.0 20.0)
  end
  begin
     id 11 
     name lowerback
     direction -0.0104711 0.984802 -0.173368   
     length 1.84931   
     axis 0 0 0   XYZ
    dof rx ry rz
    limits (-20.0 45.0)
           (-30.0 30.0)
           (-30.0 30.0)
  end
  begin
     id 12 
     name upperback
     direction -0.00286433 0.999996 -0.000382853   
     length 1.85768   
     axis 0 0 0   XYZ
    dof rx ry rz
    limits (-20.0 45.0)
           (-30.0 30.0)
           (-30.0 30.0)
  end
  begin
     id 13 
     name thorax
     direction 0.00167534 0.996793 0.0800069   
     length 1.92   
     axis 0 0 0   XYZ
    dof rx ry rz
    limits (-20.0 45.0)
           (-30.0 30.0)
           (-30.0 30.0)
  end
  begin
     id 14 
     name lowerneck
     direction -0.0672491 0.995415 0.068018   
     length 1.58923   
     axis 0 0 0   XYZ
    dof rx ry rz
    limits (-20.0 45.0)
           (-30.0 30.0)
           (-30.0 30.0)
  end
  begin
     id 15 
     name upperneck
     direction 0.0958019 0.982476 -0.159884   
     length 1.60189   
     axis 0 0 0   XYZ
    dof rx ry rz
    limits (-20.0 45.0)
           (-30.0 30.0)
           (-30.0 30.0)
  end
  begin
     id 16
     name head
     direction 0.032989 0.997338 -0.0650226  
     length 1.61681  
     axis 0 0 0   XYZ
    dof rx ry rz
    limits (-20.0 45.0)
           (-30.0 30.0)
           (-30.0 30.0)
  end
  begin
     id 17 
     name lclavicle
     direction 0.954279 0.298875 -0.00496069  
     length 2.99449  
     axis 0 0 0   XYZ
    dof ry rz
    limits (-20.0 10.0)
           (0.0 20.0)
  end
  begin
     id 18 
     name lhumerus
     direction 1 -4.48985e-011 -4.2057e-027   
     length 4.79185   
     axis 180 -30 -90   XYZ
    dof rx ry rz
    limits (-60.0 90.0)
           (-90.0 90.0)
           (-90.0 90.0)
  end
  begin
     id 19
     name lradius
     direction 1 -4.48945e-011 1.15441e-028   
     length 2.65553   
     axis 180 -30 -90   XYZ
    dof rx
    limits (-10.0 170.0)
  end
  begin
     id 20
     name lwrist
     direction 1 -4.4899e-011 4.8894e-028   
     length 1.32777   
     axis -2.56392e-016 90 90   XYZ
    dof ry
    limits (-180.0 0.0)
 end
  begin
     id 21 
     name lhand
     direction 1 -4.48908e-011 9.7788e-028   
     length 0.743904   
     axis -6.23971e-016 90 90   XYZ
    dof rx rz
    limits (-90.0 90.0)
           (-45.0 45.0)
  end
  begin
     id 22 
     name lfingers
     direction 1 -4.49068e-011 1.95576e-027   
     length 0.599754   
     axis -1.24794e-015 90 90   XYZ
    dof rx
    limits (0.0 90.0)
  end
  begin
     id 23
     name lthumb
     direction 0.707107 -6.34883e-011 0.707107   
     length 0.861131   
     axis -90 45 2.85299e-015   XYZ
    dof rx rz
    limits (-45.0 45.0)
           (-45.0 45.0)
  end
  begin
     id 24 
     name rclavicle
     direction -0.957921 0.286916 0.00811568   
     length 3.06817  
     axis 0 0 0   XYZ 
    dof ry rz
    limits (-10.0 20.0)
           (-20.0 0.0)
  end
  begin
     id 25 
     name rhumerus
     direction -1 -4.48971e-011 -3.07942e-027  
     length 4.77254   
     axis 180 30 90   XYZ
    dof rx ry rz
    limits (-90.0 60.0)
           (-90.0 90.0)
           (-90.0 90.0)
  end
  begin
     id 26 
     name rradius
     direction -1 -4.48957e-011 -9.6815e-028   
     length 2.75995   
     axis 180 30 90   XYZ
    dof rx
    limits (-10.0 170.0)
  end
  begin
     id 27 
     name rwrist
     direction -1 -4.48979e-011 4.8894e-028   
     length 1.37997   
     axis -2.56392e-016 -90 -90   XYZ
    dof ry
    limits (-180.0 0.0)
  end
  begin
     id 28
     name rhand
     direction -1 -4.48906e-011 9.7788e-028   
     length 0.701619   
     axis -6.23971e-016 -90 -90   XYZ
    dof rx rz
    limits (-90.0 90.0)
           (-45.0 45.0)
  end
  begin
     id 29
     name rfingers
     direction -1 -4.49018e-011 1.95576e-027   
     length 0.565663   
     axis -1.24794e-015 -90 -90   XYZ
    dof rx
    limits (0.0 90.0)
  end
  begin
     id 30
     name rthumb
     direction -0.707107 -6.34881e-011 0.707107   
     length 0.812183   
     axis -90 -45 -2.85299e-015   XYZ
    dof rx rz
    limits (-45.0 45.0)
           (-45.0 45.0)
  end
:hierarchy
  begin
    root lhipjoint rhipjoint lowerback
    lhipjoint lfemur
    lfemur ltibia
    ltibia lfoot
    lfoot ltoes
    rhipjoint rfemur
    rfemur rtibia
    rtibia rfoot
    rfoot rtoes
    lowerback upperback
    upperback thorax
    thorax lowerneck lclavicle rclavicle
    lowerneck upperneck
    upperneck head
    lclavicle lhumerus
    lhumerus lradius
    lradius lwrist
    lwrist lhand lthumb
    lhand lfingers
    rclavicle rhumerus
    rhumerus rradius
    rradius rwrist
    rwrist rhand rthumb
    rhand rfingers
  end

#!OML:ASF F:\VICON\USERDATA\INSTALL\rory3\rory3.ASF
:FULLY-SPECIFIED
:DEGREES
161
root -3.54656 15.6203 3.85388 -163.504 59.0403 -161.195
lowerback 8.08748 2.4954 7.9582
upperback -1.25058 4.31015 1.91802
thorax -5.43096 1.93534 -2.97773
lowerneck -10.5344 -7.62178 -11.4596
upperneck 15.847 -10.0597 10.2053
head 7.7214 -4.58352 4.19573
rclavicle -1.26787e-014 -2.10712e-014
rhumerus -25.6647 4.71187 -90.7816
rradius 28.3821
rwrist 10.2614
rhand -14.4022 15.6337
rfingers 7.12502
rthumb 11.7412 -14.0172
lclavicle -1.26787e-014 -2.10712e-014
lhumerus -38.9489 16.8839 75.8379
lradius 17.9852
lwrist -11.4694
lhand -11.0537 13.4425
lfingers 7.12502
lthumb 14.9687 42.8816
rfemur 23.0813 4.19318 36.1757
rtibia 6.36111e-015
rfoot -4.75215 -11.4448
rtoes -15.6333
lfemur -29.8604 -11.2766 -7.62624
ltibia 26.1858
lfoot -13.9782 16.6523
ltoes -3.06645
162
root -3.4059 15.6226 3.74018 -163.769 59.0494 -161.315
lowerback 8.04238 2.48499 7.956
upperback -1.28851 4.28882 1.86641
thorax -5.44381 1.92175 -3.02651
lowerneck -10.4586 -7.61001 -11.4264
upperneck 15.8979 -10.0665 10.2584
head 7.72634 -4.58015 4.21024
rclavicle -2.86561e-014 -1.35174e-014
rhumerus -26.1224 4.6408 -90.88
rradius 28.3954
rwrist 10.2575
rhand -14.3214 15.736
rfingers 7.12502
rthumb 11.8192 -13.9105
lclavicle -2.86561e-014 -1.35174e-014
lhumerus -39.4071 17.4954 75.0617
lradius 17.7545
lwrist -12.0905
lhand -10.6808 13.5376
lfingers 7.12502
lthumb 15.328 42.9495
rfemur 23.8645 3.96184 35.9195
rtibia -5.08889e-014
rfoot -3.58409 -10.8826
rtoes -19.614
lfemur -29.4803 -10.7991 -8.17776
ltibia 26.8924
lfoot -12.2993 16.5087
ltoes -3.3616
163
root -3.26376 15.6331 3.62378 -164.447 59.0671 -161.942
lowerback 7.94296 2.50302 7.74301
upperback -1.31667 4.26918 1.7338
thorax -5.42234 1.91437 -3.04001
lowerneck -10.5329 -7.69235 -11.4979
upperneck 16.1138 -10.1953 10.3893
head 7.83689 -4.62692 4.24896
rclavicle 1.67476e-014 3.18055e-015
rhumerus -26.5832 4.42345 -90.9128
rradius 28.3576
rwrist 10.4307
rhand -14.4502 15.7249
rfingers 7.12502
rthumb 11.6949 -13.9287
lclavicle 1.67476e-014 3.18055e-015
lhumerus -39.7745 17.8691 74.4649
lradius 17.4293
lwrist -12.9014
lhand -10.7496 13.5869
lfingers 7.12502
lthumb 15.2617 43.0039
rfemur 24.6304 3.68472 35.3914
rtibia 3.18055e-015
rfoot -1.99806 -10.2825
rtoes -22.9676
lfemur -29.1096 -10.4577 -8.98449
ltibia 27.5257
lfoot -10.7054 16.2722
ltoes -3.43402
164
root -3.12469 15.6443 3.50635 -165.37 58.973 -162.882
lowerback 7.85939 2.49474 7.38039
upperback -1.34674 4.20085 1.59496
thorax -5.42616 1.88625 -2.97302
lowerneck -10.6626 -7.8139 -11.7038
upperneck 16.3466 -10.3621 10.5736
head 7.97886 -4.69369 4.32084
rclavicle -3.45513e-014 1.59028e-014
rhumerus -26.9781 3.98985 -90.8435
rradius 28.1224
rwrist 10.9259
rhand -14.8346 15.7332
rfingers 7.12502
rthumb 11.3243 -13.9411
lclavicle -3.45513e-014 1.59028e-014
lhumerus -40.0168 18.2731 73.9324
lradius 16.9682
lwrist -13.711
lhand -10.93 13.5346
lfingers 7.12502
lthumb 15.088 42.9647
rfemur 22.3161 3.29104 34.5598
rtibia 5.76977
rfoot -3.48416 -9.67808
rtoes -21.9332
lfemur -28.7693 -10.3432 -9.87003
ltibia 28.0726
lfoot -9.58123 15.8498
ltoes -4.10778
165
root -2.98523 15.6553 3.38898 -166.517 58.8056 -164.025
lowerback 7.83958 2.47082 6.87332
upperback -1.39462 4.10731 1.48885
thorax -5.49887 1.84812 -2.79333
lowerneck -10.6909 -7.93279 -12.0183
upperneck 16.5451 -10.5053 10.7137
head 8.09336 -4.76398 4.40111
rclavicle -5.02677e-014 1.19271e-015
rhumerus -27.4878 3.58714 -90.6744
rradius 27.9003
rwrist 11.2618
rhand -15.0225 15.9406
rfingers 7.12502
rthumb 11.1431 -13.7435
lclavicle -5.02677e-014 1.19271e-015
lhumerus -40.3088 18.8403 73.3468
lradius 16.4595
lwrist -14.6368
lhand -11.089 13.5128
lfingers 7.12502
lthumb 14.9348 42.9543
rfemur 21.1767 2.81307 33.6076
rtibia 9.35387
rfoot -4.16725 -8.85886
rtoes -16.6934
lfemur -28.2716 -10.5117 -10.7847
ltibia 28.4776
lfoot -8.81481 15.456
ltoes -4.53748
166
root -2.84422 15.6684 3.27417 -167.766 58.6593 -165.254
lowerback 7.81626 2.4164 6.28131
upperback -1.40911 3.95899 1.34122
thorax -5.54019 1.7868 -2.60189
lowerneck -10.7483 -7.97305 -12.0173
upperneck 16.6896 -10.5548 10.6666
head 8.1551 -4.78676 4.3778
rclavicle 3.30138e-014 1.27222e-014
rhumerus -27.9727 3.27362 -90.6105
rradius 27.6567
rwrist 11.4511
rhand -15.1011 16.2551
rfingers 7.12502
rthumb 11.0672 -13.4331
lclavicle 3.30138e-014 1.27222e-014
lhumerus -40.6402 19.8788 72.326
lradius 15.905
lwrist -16.0846
lhand -11.1582 13.4278
lfingers 7.12502
lthumb 14.8681 42.8743
rfemur 20.2208 2.328 32.6628
rtibia 12.5667
rfoot -4.09492 -8.23533
rtoes -13.8178
lfemur -27.6319 -10.6531 -11.7517
ltibia 28.7894
lfoot -8.04613 15.0133
ltoes -4.64376
167
root -2.70318 15.681 3.1587 -168.949 58.5579 -166.447
lowerback 7.73815 2.39095 5.68513
upperback -1.38985 3.8422 1.16981
thorax -5.50895 1.74408 -2.43157
lowerneck -10.6198 -7.96591 -11.8238
upperneck 16.5246 -10.5685 10.5934
head 8.06342 -4.79386 4.32265
rclavicle -3.2228e-014 -9.14409e-015
rhumerus -28.3972 2.91134 -90.5261
rradius 27.4368
rwrist 11.6939
rhand -15.1769 16.4218
rfingers 7.12502
rthumb 10.9941 -13.2704
lclavicle -3.2228e-014 -9.14409e-015
lhumerus -40.8841 20.8239 71.3462
lradius 15.4382
lwrist -17.536
lhand -11.0065 13.3836
lfingers 7.12502
lthumb 15.0143 42.8192
rfemur 19.3052 2.05175 31.8404
rtibia 15.5802
rfoot -3.63738 -8.0503
rtoes -14.1737
lfemur -26.9432 -10.6085 -12.7424
ltibia 29.0528
lfoot -7.40581 14.6192
ltoes -4.66218
